<?xml version="1.0" encoding="utf-8"?>
<!-- Svg Vector Icons : http://www.onlinewebfonts.com/icon -->
<!DOCTYPE svg PUBLIC "-//W3C//DTD SVG 1.1//EN" "http://www.w3.org/Graphics/SVG/1.1/DTD/svg11.dtd">
<svg fill="#253E62" version="1.1" xmlns="http://www.w3.org/2000/svg" xmlns:xlink="http://www.w3.org/1999/xlink" x="0px" y="0px" viewBox="0 0 1000 1000" enable-background="new 0 0 1000 1000" xml:space="preserve">
<metadata> Svg Vector Icons : http://www.onlinewebfonts.com/icon </metadata>
<g><path d="M745,42.8l-48.1,83.3c29.7,17.1,56.9,38.1,81.5,62.7C814.6,225,843,267.1,862.8,314c20.5,48.5,30.9,100,30.9,153.2c0,53.2-10.4,104.8-30.9,153.2c-19.8,46.9-48.2,89-84.4,125.2c-36.2,36.2-78.3,64.6-125.2,84.4C604.8,850.6,553.2,861,500,861s-104.8-10.4-153.2-30.9c-46.9-19.8-89-48.2-125.2-84.4c-36.2-36.2-64.6-78.3-84.4-125.2c-20.5-48.5-30.9-100-30.9-153.2c0-34.3,4.4-68.2,13-101c8.4-31.7,20.8-62.4,36.9-91.1c31.7-56.6,77.4-105.1,132.2-140c4.9-3.1,9.8-6.1,14.8-9L255,42.8c-6.3,3.6-12.4,7.4-18.5,11.2C100.3,141.1,10,293.6,10,467.2c0,270.6,219.4,490,490,490c270.6,0,490-219.4,490-490C990,285.9,891.5,127.5,745,42.8z"/></g>
</svg>

