<svg width="24" height="26" viewBox="0 0 24 26" fill="none" xmlns="http://www.w3.org/2000/svg">
<path d="M14.121 11.1111C13.9334 10.9124 13.6791 10.8007 13.414 10.8007C13.1488 10.8007 12.8945 10.9124 12.707 11.1111L12 11.8597C11.8155 12.0622 11.5948 12.2237 11.3508 12.3349C11.1068 12.446 10.8443 12.5045 10.5788 12.5069C10.3132 12.5094 10.0498 12.4557 9.80405 12.3491C9.55826 12.2425 9.33496 12.085 9.14717 11.8859C8.95939 11.6869 8.81088 11.4501 8.71032 11.1895C8.60976 10.9289 8.55915 10.6497 8.56146 10.3681C8.56377 10.0866 8.61894 9.80834 8.72376 9.54964C8.82858 9.29093 8.98094 9.05695 9.17196 8.86135L14.802 2.89016C16.1349 2.56872 17.5295 2.70101 18.7874 3.26821C20.0453 3.8354 21.1026 4.80863 21.8088 6.04951C22.5151 7.2904 22.8344 8.73576 22.7213 10.1801C22.6082 11.6244 22.0685 12.9942 21.179 14.0946L19.071 16.3582L14.121 11.1101V11.1111ZM3.16096 4.73707C4.19572 3.64014 5.54918 2.94527 7.00252 2.7648C8.45586 2.58434 9.92414 2.92883 11.17 3.74258L7.75696 7.36219C7.01776 8.14435 6.59639 9.202 6.5829 10.3091C6.5694 11.4163 6.96485 12.4851 7.68474 13.2873C8.40463 14.0894 9.39187 14.5613 10.4355 14.602C11.4792 14.6427 12.4964 14.249 13.27 13.5051L13.414 13.3599L17.657 17.8574L13.414 22.3559C13.0389 22.7534 12.5303 22.9767 12 22.9767C11.4696 22.9767 10.961 22.7534 10.586 22.3559L3.15996 14.4827C1.94109 13.1903 1.25635 11.4375 1.25635 9.60987C1.25635 7.78224 1.94109 6.02945 3.15996 4.73707H3.16096Z" fill="black"/>
</svg>
