<svg width="22" height="21" viewBox="0 0 22 21" fill="none" xmlns="http://www.w3.org/2000/svg">
<path d="M13.121 9.11118C12.9334 8.91241 12.6791 8.80076 12.414 8.80076C12.1488 8.80076 11.8945 8.91241 11.707 9.11118L11 9.8597C10.8155 10.0622 10.5948 10.2238 10.3508 10.3349C10.1068 10.446 9.84432 10.5045 9.57876 10.507C9.31321 10.5094 9.04985 10.4558 8.80405 10.3491C8.55826 10.2425 8.33496 10.0851 8.14717 9.88598C7.95939 9.68688 7.81088 9.45013 7.71032 9.18954C7.60976 8.92894 7.55915 8.64972 7.56146 8.36817C7.56377 8.08662 7.61894 7.80837 7.72376 7.54967C7.82858 7.29096 7.98094 7.05698 8.17196 6.86138L13.802 0.890188C15.1349 0.568755 16.5295 0.701041 17.7874 1.26824C19.0453 1.83543 20.1026 2.80866 20.8088 4.04954C21.5151 5.29043 21.8344 6.73579 21.7213 8.18012C21.6082 9.62444 21.0685 10.9942 20.179 12.0947L18.071 14.3582L13.121 9.11012V9.11118ZM2.16096 2.7371C3.19572 1.64017 4.54918 0.945297 6.00252 0.764833C7.45586 0.584369 8.92414 0.928859 10.17 1.74261L6.75696 5.36222C6.01776 6.14438 5.59639 7.20203 5.5829 8.30918C5.5694 9.41633 5.96485 10.4852 6.68474 11.2873C7.40463 12.0895 8.39187 12.5613 9.43551 12.602C10.4792 12.6427 11.4964 12.2491 12.27 11.5052L12.414 11.3599L16.657 15.8574L12.414 20.3559C12.0389 20.7535 11.5303 20.9768 11 20.9768C10.4696 20.9768 9.96102 20.7535 9.58596 20.3559L2.15996 12.4827C0.941092 11.1903 0.256348 9.43753 0.256348 7.6099C0.256348 5.78227 0.941092 4.02948 2.15996 2.7371H2.16096Z" fill="black"/>
</svg>
